<?xml version="1.0" standalone="no"?>
<!DOCTYPE svg PUBLIC "-//W3C//DTD SVG 20010904//EN"
 "http://www.w3.org/TR/2001/REC-SVG-20010904/DTD/svg10.dtd">
<svg version="1.0" xmlns="http://www.w3.org/2000/svg"
 width="100.000000pt" height="100.000000pt" viewBox="0 0 100.000000 100.000000"
 preserveAspectRatio="xMidYMid meet">
<metadata>
Created by potrace 1.11, written by Peter Selinger 2001-2013
</metadata>
<g transform="translate(0.000000,100.000000) scale(0.100000,-0.100000)"
fill="#000000" stroke="none">
<path d="M429 995 c-3 -2 -18 -6 -34 -9 -17 -2 -30 -5 -30 -6 0 -1 -8 -3 -17
-5 -85 -16 -241 -145 -285 -235 -47 -95 -52 -113 -58 -222 -9 -180 80 -349
233 -442 83 -50 136 -67 233 -71 305 -16 549 231 525 529 -10 126 -52 222
-136 307 -75 77 -152 123 -245 145 -27 7 -181 14 -186 9z"/>
</g>
</svg>
